<?xml version="1.0" encoding="UTF-8" standalone="no"?>
<!-- Created with Inkscape (http://www.inkscape.org/) -->
<svg id="svg2" xmlns:rdf="http://www.w3.org/1999/02/22-rdf-syntax-ns#" xmlns="http://www.w3.org/2000/svg" fill-rule="evenodd" xml:space="preserve" height="148" width="462.98" version="1.1" xmlns:cc="http://creativecommons.org/ns#" viewBox="0 0 463.56249 147.61784" xmlns:dc="http://purl.org/dc/elements/1.1/"><metadata id="metadata872"><rdf:RDF><cc:Work rdf:about=""><dc:format>image/svg+xml</dc:format><dc:type rdf:resource="http://purl.org/dc/dcmitype/StillImage"/><dc:title/></cc:Work></rdf:RDF></metadata><defs id="defs4"><style id="style6" type="text/css"/><filter id="filter5814" height="1.2805" width="1.2959" color-interpolation-filters="sRGB" y="-.14025" x="-.14796"><feGaussianBlur id="feGaussianBlur5816" stdDeviation="0.49585862"/></filter></defs><g id="layer12"><path id="path5808" d="m70.534 38.577c0 2.3431-1.8006 4.2426-4.0217 4.2426s-4.0217-1.8995-4.0217-4.2426 1.8006-4.2426 4.0217-4.2426 4.0217 1.8995 4.0217 4.2426z" transform="matrix(1.0013 0 0 1.0013 -.51365 -2.0548)" filter="url(#filter5814)" fill="#fff"/><path id="path5818" d="m70.534 38.577c0 2.3431-1.8006 4.2426-4.0217 4.2426s-4.0217-1.8995-4.0217-4.2426 1.8006-4.2426 4.0217-4.2426 4.0217 1.8995 4.0217 4.2426z" transform="matrix(1.0013 0 0 1.0013 13.504 24.604)" filter="url(#filter5814)" fill="#fff"/><path id="path5820" d="m70.534 38.577c0 2.3431-1.8006 4.2426-4.0217 4.2426s-4.0217-1.8995-4.0217-4.2426 1.8006-4.2426 4.0217-4.2426 4.0217 1.8995 4.0217 4.2426z" transform="matrix(1.0013 0 0 1.0013 25.519 50.261)" filter="url(#filter5814)" fill="#fff"/><path id="path5822" d="m70.534 38.577c0 2.3431-1.8006 4.2426-4.0217 4.2426s-4.0217-1.8995-4.0217-4.2426 1.8006-4.2426 4.0217-4.2426 4.0217 1.8995 4.0217 4.2426z" transform="matrix(1.0013 0 0 1.0013 29.524 -2.0548)" filter="url(#filter5814)" fill="#fff"/><path id="path5824" d="m70.534 38.577c0 2.3431-1.8006 4.2426-4.0217 4.2426s-4.0217-1.8995-4.0217-4.2426 1.8006-4.2426 4.0217-4.2426 4.0217 1.8995 4.0217 4.2426z" transform="matrix(1.0013 0 0 1.0013 43.541 24.604)" filter="url(#filter5814)" fill="#fff"/><path id="path5826" d="m70.534 38.577c0 2.3431-1.8006 4.2426-4.0217 4.2426s-4.0217-1.8995-4.0217-4.2426 1.8006-4.2426 4.0217-4.2426 4.0217 1.8995 4.0217 4.2426z" transform="matrix(1.0013 0 0 1.0013 55.556 50.261)" filter="url(#filter5814)" fill="#fff"/><path id="path5828" d="m70.534 38.577c0 2.3431-1.8006 4.2426-4.0217 4.2426s-4.0217-1.8995-4.0217-4.2426 1.8006-4.2426 4.0217-4.2426 4.0217 1.8995 4.0217 4.2426z" transform="matrix(1.0013 0 0 1.0013 59.561 -2.0548)" filter="url(#filter5814)" fill="#fff"/><path id="path5830" d="m70.534 38.577c0 2.3431-1.8006 4.2426-4.0217 4.2426s-4.0217-1.8995-4.0217-4.2426 1.8006-4.2426 4.0217-4.2426 4.0217 1.8995 4.0217 4.2426z" transform="matrix(1.0013 0 0 1.0013 73.579 24.604)" filter="url(#filter5814)" fill="#fff"/><path id="path5832" d="m70.534 38.577c0 2.3431-1.8006 4.2426-4.0217 4.2426s-4.0217-1.8995-4.0217-4.2426 1.8006-4.2426 4.0217-4.2426 4.0217 1.8995 4.0217 4.2426z" transform="matrix(1.0013 0 0 1.0013 85.594 50.261)" filter="url(#filter5814)" fill="#fff"/><path id="path5834" d="m70.534 38.577c0 2.3431-1.8006 4.2426-4.0217 4.2426s-4.0217-1.8995-4.0217-4.2426 1.8006-4.2426 4.0217-4.2426 4.0217 1.8995 4.0217 4.2426z" transform="matrix(1.0013 0 0 1.0013 89.599 -2.0548)" filter="url(#filter5814)" fill="#fff"/><path id="path5836" d="m70.534 38.577c0 2.3431-1.8006 4.2426-4.0217 4.2426s-4.0217-1.8995-4.0217-4.2426 1.8006-4.2426 4.0217-4.2426 4.0217 1.8995 4.0217 4.2426z" transform="matrix(1.0013 0 0 1.0013 103.62 24.604)" filter="url(#filter5814)" fill="#fff"/><path id="path5838" d="m70.534 38.577c0 2.3431-1.8006 4.2426-4.0217 4.2426s-4.0217-1.8995-4.0217-4.2426 1.8006-4.2426 4.0217-4.2426 4.0217 1.8995 4.0217 4.2426z" transform="matrix(1.0013 0 0 1.0013 115.63 50.261)" filter="url(#filter5814)" fill="#fff"/><path id="path5840" d="m70.534 38.577c0 2.3431-1.8006 4.2426-4.0217 4.2426s-4.0217-1.8995-4.0217-4.2426 1.8006-4.2426 4.0217-4.2426 4.0217 1.8995 4.0217 4.2426z" transform="matrix(1.0013 0 0 1.0013 119.64 -2.0548)" filter="url(#filter5814)" fill="#fff"/><path id="path5842" d="m70.534 38.577c0 2.3431-1.8006 4.2426-4.0217 4.2426s-4.0217-1.8995-4.0217-4.2426 1.8006-4.2426 4.0217-4.2426 4.0217 1.8995 4.0217 4.2426z" transform="matrix(1.0013 0 0 1.0013 133.65 24.604)" filter="url(#filter5814)" fill="#fff"/><path id="path5844" d="m70.534 38.577c0 2.3431-1.8006 4.2426-4.0217 4.2426s-4.0217-1.8995-4.0217-4.2426 1.8006-4.2426 4.0217-4.2426 4.0217 1.8995 4.0217 4.2426z" transform="matrix(1.0013 0 0 1.0013 145.67 50.261)" filter="url(#filter5814)" fill="#fff"/><path id="path5846" d="m70.534 38.577c0 2.3431-1.8006 4.2426-4.0217 4.2426s-4.0217-1.8995-4.0217-4.2426 1.8006-4.2426 4.0217-4.2426 4.0217 1.8995 4.0217 4.2426z" transform="matrix(1.0013 0 0 1.0013 149.67 -2.0548)" filter="url(#filter5814)" fill="#fff"/><path id="path5848" d="m70.534 38.577c0 2.3431-1.8006 4.2426-4.0217 4.2426s-4.0217-1.8995-4.0217-4.2426 1.8006-4.2426 4.0217-4.2426 4.0217 1.8995 4.0217 4.2426z" transform="matrix(1.0013 0 0 1.0013 163.69 24.604)" filter="url(#filter5814)" fill="#fff"/><path id="path5850" d="m70.534 38.577c0 2.3431-1.8006 4.2426-4.0217 4.2426s-4.0217-1.8995-4.0217-4.2426 1.8006-4.2426 4.0217-4.2426 4.0217 1.8995 4.0217 4.2426z" transform="matrix(1.0013 0 0 1.0013 175.71 50.261)" filter="url(#filter5814)" fill="#fff"/><path id="path5852" d="m70.534 38.577c0 2.3431-1.8006 4.2426-4.0217 4.2426s-4.0217-1.8995-4.0217-4.2426 1.8006-4.2426 4.0217-4.2426 4.0217 1.8995 4.0217 4.2426z" transform="matrix(1.0013 0 0 1.0013 179.71 -2.0548)" filter="url(#filter5814)" fill="#fff"/><path id="path5854" d="m70.534 38.577c0 2.3431-1.8006 4.2426-4.0217 4.2426s-4.0217-1.8995-4.0217-4.2426 1.8006-4.2426 4.0217-4.2426 4.0217 1.8995 4.0217 4.2426z" transform="matrix(1.0013 0 0 1.0013 193.73 24.604)" filter="url(#filter5814)" fill="#fff"/><path id="path5856" d="m70.534 38.577c0 2.3431-1.8006 4.2426-4.0217 4.2426s-4.0217-1.8995-4.0217-4.2426 1.8006-4.2426 4.0217-4.2426 4.0217 1.8995 4.0217 4.2426z" transform="matrix(1.0013 0 0 1.0013 205.74 50.261)" filter="url(#filter5814)" fill="#fff"/><path id="path5858" d="m70.534 38.577c0 2.3431-1.8006 4.2426-4.0217 4.2426s-4.0217-1.8995-4.0217-4.2426 1.8006-4.2426 4.0217-4.2426 4.0217 1.8995 4.0217 4.2426z" transform="matrix(1.0013 0 0 1.0013 209.75 -2.0548)" filter="url(#filter5814)" fill="#fff"/><path id="path5860" d="m70.534 38.577c0 2.3431-1.8006 4.2426-4.0217 4.2426s-4.0217-1.8995-4.0217-4.2426 1.8006-4.2426 4.0217-4.2426 4.0217 1.8995 4.0217 4.2426z" transform="matrix(1.0013 0 0 1.0013 223.77 24.604)" filter="url(#filter5814)" fill="#fff"/><path id="path5864" d="m70.534 38.577c0 2.3431-1.8006 4.2426-4.0217 4.2426s-4.0217-1.8995-4.0217-4.2426 1.8006-4.2426 4.0217-4.2426 4.0217 1.8995 4.0217 4.2426z" transform="matrix(1.0013 0 0 1.0013 239.79 -2.0548)" filter="url(#filter5814)" fill="#fff"/><path id="path5866" d="m70.534 38.577c0 2.3431-1.8006 4.2426-4.0217 4.2426s-4.0217-1.8995-4.0217-4.2426 1.8006-4.2426 4.0217-4.2426 4.0217 1.8995 4.0217 4.2426z" transform="matrix(1.0013 0 0 1.0013 253.8 24.604)" filter="url(#filter5814)" fill="#fff"/><path id="path5868" d="m70.534 38.577c0 2.3431-1.8006 4.2426-4.0217 4.2426s-4.0217-1.8995-4.0217-4.2426 1.8006-4.2426 4.0217-4.2426 4.0217 1.8995 4.0217 4.2426z" transform="matrix(1.0013 0 0 1.0013 269.82 -2.0548)" filter="url(#filter5814)" fill="#fff"/><g id="text4264" fill-rule="evenodd" fill-opacity=".66667" transform="matrix(1.0007 0 0 .99928 .50004 .53534)" fill="#6229ad"><path id="path4096" d="m121.11 87.964-1.3246-2.0906h0.802l0.58573 0.9642c0.0661 0.12015 0.13517 0.24331 0.20726 0.36946 0.0721 0.12015 0.14718 0.2403 0.22528 0.36045h0.036c0.0661-0.12015 0.13216-0.2403 0.19825-0.36045 0.0661-0.12615 0.13216-0.24931 0.19824-0.36946l0.53167-0.9642h0.77497l-1.3247 2.1717 1.4238 2.2078h-0.802l-0.6398-1.0183c-0.0781-0.13216-0.1562-0.26433-0.23429-0.3965-0.0781-0.13216-0.1592-0.26132-0.24331-0.38748h-0.036c-0.0781 0.12616-0.1532 0.25532-0.22528 0.38748-0.0721 0.12616-0.14419 0.25832-0.21627 0.3965l-0.59475 1.0183h-0.77496l1.4328-2.2889"/></g><g id="text4270" fill-rule="evenodd" fill-opacity=".66667" transform="matrix(1.0007 0 0 .99928 .50004 .53534)" fill="#6229ad"><path id="path4099" d="m149.84 88.072c0-0.36646 0.0571-0.69086 0.17122-0.97322 0.11414-0.28836 0.26733-0.53166 0.45957-0.72991 0.19224-0.19824 0.41452-0.34843 0.66683-0.45056 0.25832-0.10212 0.52866-0.15319 0.81102-0.15319 0.28835 0.000005 0.53466 0.05407 0.73892 0.1622 0.21026 0.10213 0.39048 0.22228 0.54067 0.36045l-0.36946 0.4776c-0.13217-0.11414-0.27034-0.20726-0.41451-0.27935-0.13818-0.07209-0.29437-0.10813-0.46859-0.10814-0.19825 0.000003-0.38148 0.04206-0.54969 0.12616-0.16821 0.0781-0.31239 0.19224-0.43254 0.34243s-0.21627 0.33042-0.28836 0.54068c-0.0661 0.20426-0.0991 0.43254-0.0991 0.68486s0.033 0.4806 0.0991 0.68486 0.1562 0.38148 0.27034 0.53166c0.12015 0.14418 0.26433 0.25832 0.43254 0.34243 0.16821 0.0781 0.35144 0.11715 0.54969 0.11715 0.21026 0.000001 0.39949-0.04205 0.56771-0.12616 0.17421-0.09011 0.3274-0.19524 0.45957-0.31539l0.33342 0.48661c-0.19825 0.17422-0.42053 0.31239-0.66684 0.41452-0.2403 0.10213-0.49261 0.15319-0.75694 0.15319-0.28836 0-0.5587-0.05106-0.81101-0.15319-0.25232-0.10213-0.47159-0.24931-0.65783-0.44155-0.18022-0.19825-0.3244-0.43855-0.43254-0.7209-0.10212-0.28836-0.15319-0.61276-0.15319-0.97322"/></g><g id="text4276" fill-rule="evenodd" fill-opacity=".66667" transform="matrix(1.0007 0 0 .99928 .50004 .53534)" fill="#6229ad"><path id="path4102" d="m137.65 62.255c0-0.35444 0.0511-0.67284 0.1532-0.95519 0.10813-0.28836 0.24931-0.53166 0.42352-0.72991 0.17422-0.19824 0.37547-0.35144 0.60376-0.45957 0.22828-0.10813 0.46858-0.1622 0.7209-0.1622 0.25231 0.000004 0.47159 0.04506 0.65782 0.13517 0.18623 0.09012 0.37547 0.21327 0.56771 0.36946l-0.036-0.74793v-1.6851h0.74793v6.416h-0.61277l-0.0631-0.51364h-0.027c-0.17422 0.16821-0.37547 0.31539-0.60375 0.44155-0.22228 0.12015-0.46258 0.18022-0.7209 0.18022-0.5527 0-0.99425-0.19825-1.3247-0.59474-0.3244-0.39649-0.48661-0.9612-0.48661-1.6941m0.76596-0.009c0 0.52866 0.10513 0.94018 0.3154 1.2345 0.21026 0.29437 0.50763 0.44155 0.89211 0.44155 0.20425 0.000001 0.39649-0.04806 0.57672-0.14418 0.18022-0.10213 0.36045-0.25532 0.54068-0.45957v-2.2889c-0.18624-0.16821-0.36647-0.28535-0.54068-0.35144-0.16821-0.07209-0.34243-0.10813-0.52265-0.10814-0.17422 0.000004-0.33943 0.04206-0.49562 0.12616-0.15019 0.0781-0.28236 0.19224-0.3965 0.34243-0.11414 0.14418-0.20425 0.3184-0.27034 0.52265-0.0661 0.20426-0.0991 0.43254-0.0991 0.68486"/></g><g id="text4282" fill-rule="evenodd" fill-opacity=".66667" transform="matrix(1.0007 0 0 .99928 .50004 .53534)" fill="#6229ad"><path id="path4105" d="m170.73 58.623c-0.16221-0.07208-0.32741-0.10813-0.49562-0.10814-0.40851 0.000006-0.61277 0.28236-0.61276 0.84706v0.69387h0.92815v0.60375h-0.92815v3.7757h-0.73893v-3.7757h-0.59474v-0.5587l0.59474-0.04506v-0.69387c0-0.45056 0.10213-0.805 0.30639-1.0633 0.21026-0.25832 0.53466-0.38748 0.97321-0.38748 0.13817 0.000006 0.26733 0.01503 0.38748 0.04506 0.12616 0.02404 0.2403 0.05708 0.34243 0.09912l-0.1622 0.56771"/></g><g id="text4288" fill-rule="evenodd" fill-opacity=".66667" transform="matrix(1.0007 0 0 .99928 .50004 .53534)" fill="#6229ad"><path id="path4108" d="m154.38 34.14h0.61277l0.0631 0.79299h0.027c0.15019-0.27634 0.33041-0.49562 0.54068-0.65782 0.21626-0.1622 0.45056-0.2433 0.70287-0.2433 0.17422 0.000005 0.33041 0.03004 0.46859 0.09011l-0.14418 0.64881c-0.0721-0.02403-0.13818-0.04205-0.19825-0.05407-0.0601-0.01201-0.13517-0.01802-0.22528-0.01802-0.18623 0.000004-0.38148 0.0751-0.58573 0.22528-0.19825 0.15019-0.37247 0.41152-0.52265 0.78398v2.8115h-0.73893v-4.3795"/></g><g id="text4294" fill-rule="evenodd" fill-opacity=".66667" transform="matrix(1.0007 0 0 .99928 .50004 .53534)" fill="#6229ad"><path id="path4111" d="m179.6 85.873h0.76595l0.82904 2.4871c0.0661 0.21627 0.13216 0.43254 0.19825 0.64881 0.0721 0.21627 0.14117 0.42954 0.20726 0.6398h0.036c0.0661-0.21026 0.13216-0.42353 0.19825-0.6398 0.0661-0.21627 0.13216-0.43254 0.19825-0.64881l0.82903-2.4871h0.72991l-1.5499 4.3795h-0.86508l-1.577-4.3795"/></g><g id="text4300" fill-rule="evenodd" fill-opacity=".66667" transform="matrix(1.0007 0 0 .99928 .50004 .53534)" fill="#6229ad"><path id="path4114" d="m209.7 83.837h0.73893v1.7482l-0.018 0.79299c0.19825-0.17421 0.41452-0.31839 0.64881-0.43254 0.23429-0.12014 0.47459-0.18022 0.7209-0.18022 0.28235 0.000005 0.53167 0.05407 0.74794 0.1622 0.21627 0.10213 0.39649 0.25232 0.54067 0.45056 0.15019 0.19224 0.26133 0.42654 0.33342 0.70288 0.0781 0.27034 0.11714 0.57372 0.11715 0.91014-0.00001 0.37247-0.0511 0.70588-0.15319 1.0002-0.10214 0.29437-0.24031 0.54368-0.41452 0.74793-0.17422 0.20426-0.37547 0.36045-0.60376 0.46858-0.22828 0.10213-0.46858 0.15319-0.7209 0.15319-0.20425 0-0.41752-0.04506-0.6398-0.13517-0.21627-0.09612-0.42052-0.23129-0.61276-0.40551h-0.027l-0.0631 0.43254h-0.59475v-6.416m0.73893 5.4428c0.19223 0.16821 0.38147 0.28836 0.56771 0.36045 0.19223 0.06608 0.36044 0.09912 0.50463 0.09912 0.18022 0 0.34542-0.03905 0.49561-0.11715 0.1562-0.08411 0.28836-0.19825 0.3965-0.34243 0.11414-0.15019 0.20125-0.33342 0.26133-0.54969 0.0661-0.21627 0.0991-0.45957 0.0991-0.72991 0-0.2403-0.021-0.45957-0.0631-0.65782-0.0421-0.19824-0.11114-0.36646-0.20726-0.50463-0.0901-0.14418-0.21026-0.25532-0.36045-0.33342-0.14418-0.07809-0.3184-0.11714-0.52265-0.11715-0.35445 0.000004-0.74493 0.19825-1.1715 0.59474v2.2979"/></g><g id="text4306" fill-rule="evenodd" fill-opacity=".66667" transform="matrix(1.0007 0 0 .99928 .50004 .53534)" fill="#6229ad"><path id="path4117" d="m239.88 85.873h0.61277l0.0631 0.63079h0.027c0.21026-0.21026 0.42954-0.38448 0.65782-0.52265 0.23429-0.14418 0.50463-0.21626 0.81102-0.21627 0.46257 0.000005 0.79899 0.14418 1.0093 0.43254 0.21626 0.28836 0.3244 0.7149 0.3244 1.2796v2.7755h-0.73892v-2.6763c0-0.41452-0.0661-0.71189-0.19825-0.89212-0.13217-0.18623-0.34243-0.27934-0.63079-0.27935-0.22828 0.000004-0.42953 0.05707-0.60375 0.17121-0.17422 0.11415-0.37247 0.28236-0.59474 0.50463v3.172h-0.73893v-4.3795"/></g><g id="text4312" fill-rule="evenodd" fill-opacity=".66667" transform="matrix(1.0007 0 0 .99928 .50004 .53534)" fill="#6229ad"><path id="path4120" d="m198.24 65.175c0 0.23429 0.11114 0.42052 0.33342 0.5587 0.22828 0.13817 0.54067 0.20726 0.93717 0.20726 0.21026-0.000001 0.3995-0.02704 0.56771-0.0811 0.17421-0.04806 0.3214-0.11414 0.44155-0.19825 0.12015-0.0781 0.21326-0.17122 0.27935-0.27935 0.0661-0.10814 0.0991-0.21927 0.0991-0.33342 0-0.20426-0.0751-0.34543-0.22528-0.42353-0.15019-0.0781-0.36946-0.11715-0.65782-0.11715h-0.75695c-0.0841 0-0.17722-0.006-0.27934-0.01802-0.0961-0.006-0.19225-0.02403-0.28836-0.05407-0.1562 0.11414-0.27034 0.23429-0.34243 0.36045-0.0721 0.12616-0.10814 0.25231-0.10814 0.37847m-0.64881 0.09912c0-0.18623 0.0571-0.36345 0.17122-0.53166 0.11414-0.16821 0.27033-0.3214 0.46858-0.45957v-0.03605c-0.10813-0.06608-0.20125-0.15619-0.27935-0.27034-0.0721-0.12015-0.10813-0.26733-0.10813-0.44155 0-0.18623 0.0511-0.34843 0.15319-0.48661 0.10213-0.13817 0.21026-0.24631 0.3244-0.3244v-0.03605c-0.14418-0.12015-0.27634-0.27935-0.39649-0.4776-0.11414-0.20425-0.17122-0.43854-0.17122-0.70288 0-0.2403 0.0421-0.45657 0.12616-0.64881 0.0901-0.19224 0.21026-0.35444 0.36045-0.48661 0.15019-0.13817 0.32441-0.2433 0.52266-0.31539 0.20425-0.07209 0.41751-0.10813 0.63979-0.10814 0.12015 0.000004 0.23129 0.01202 0.33342 0.03605 0.10813 0.01803 0.20425 0.04206 0.28836 0.07209h1.5229v0.56771h-0.90112c0.10212 0.10213 0.18623 0.23129 0.25231 0.38748 0.0721 0.1562 0.10813 0.32741 0.10814 0.51364-0.00001 0.2343-0.0421 0.44756-0.12616 0.6398-0.0841 0.18624-0.19825 0.34543-0.34243 0.4776-0.14418 0.12616-0.31539 0.22528-0.51364 0.29737-0.19224 0.07209-0.3995 0.10814-0.62178 0.10814-0.10813 0.000002-0.21927-0.01201-0.33341-0.03605-0.11415-0.03004-0.22228-0.06908-0.32441-0.11715-0.0781 0.06608-0.14418 0.14118-0.19824 0.22528-0.0541 0.0781-0.0811 0.17722-0.0811 0.29737 0 0.13817 0.0541 0.25232 0.16221 0.34243 0.10813 0.09011 0.31238 0.13517 0.61276 0.13517h0.84706c0.51063 0.000001 0.89211 0.08411 1.1444 0.25232 0.25832 0.1622 0.38748 0.42653 0.38748 0.79299 0 0.20425-0.0511 0.39649-0.15319 0.57672-0.10213 0.18623-0.24931 0.34843-0.44155 0.48661-0.19224 0.13817-0.42654 0.24631-0.70288 0.3244-0.27034 0.0841-0.57672 0.12616-0.91915 0.12616-0.27034-0.000002-0.51664-0.02704-0.73892-0.0811-0.22228-0.04806-0.41452-0.12316-0.57672-0.22528-0.15619-0.10213-0.27935-0.22528-0.36946-0.36946-0.0841-0.14418-0.12616-0.31239-0.12616-0.50463m1.8113-2.7214c0.12616 0.000002 0.24331-0.02403 0.35144-0.07209 0.11414-0.04806 0.21327-0.11714 0.29737-0.20726 0.0901-0.09011 0.1592-0.19824 0.20726-0.3244 0.0481-0.13216 0.0721-0.27935 0.0721-0.44155 0-0.3244-0.0901-0.57371-0.27033-0.74793-0.18023-0.18022-0.39951-0.27033-0.65783-0.27034-0.25832 0.000004-0.47759 0.09012-0.65782 0.27034-0.18022 0.17422-0.27034 0.42353-0.27033 0.74793-0.00001 0.1622 0.024 0.30939 0.0721 0.44155 0.0481 0.12616 0.11414 0.2343 0.19824 0.3244 0.0901 0.09011 0.18924 0.1592 0.29737 0.20726 0.11414 0.04806 0.23429 0.07209 0.36045 0.07209"/></g><g id="text4318" fill-rule="evenodd" fill-opacity=".66667" transform="matrix(1.0007 0 0 .99928 .50004 .53534)" fill="#6229ad"><path id="path4123" d="m227.87 58.02h0.73892v1.7482l-0.027 0.90113c0.21026-0.19824 0.42953-0.36645 0.65782-0.50463 0.22828-0.14418 0.49561-0.21627 0.802-0.21627 0.46257 0.000004 0.79899 0.14418 1.0093 0.43254 0.21626 0.28836 0.3244 0.7149 0.3244 1.2796v2.7755h-0.73892v-2.6763c0-0.41452-0.0661-0.71189-0.19825-0.89211-0.13216-0.18623-0.34243-0.27934-0.63078-0.27935-0.22829 0.000004-0.42954 0.05708-0.60376 0.17121-0.17422 0.11415-0.37247 0.28236-0.59474 0.50463v3.172h-0.73892v-6.416"/></g><g id="text4336" fill-rule="evenodd" fill-opacity=".66667" transform="matrix(1.0007 0 0 .99928 .50004 .53534)" fill="#6229ad"><path id="path4126" d="m184.89 34.744h-0.64881v-0.5587l0.68486-0.04506 0.0901-1.2255h0.62178v1.2255h1.1805v0.60375h-1.1805v2.433c0 0.27034 0.0481 0.4806 0.14418 0.63079 0.10212 0.14418 0.27935 0.21627 0.53166 0.21627 0.0781 0.000001 0.1622-0.01201 0.25232-0.03605 0.0901-0.02403 0.17121-0.05106 0.2433-0.0811l0.14418 0.5587c-0.12015 0.04205-0.25232 0.0781-0.39649 0.10814-0.13818 0.03605-0.27635 0.05407-0.41452 0.05407-0.2343 0-0.43254-0.03605-0.59474-0.10814-0.1562-0.07209-0.28536-0.17121-0.38749-0.29737-0.0961-0.12616-0.16521-0.27935-0.20726-0.45957-0.042-0.18022-0.0631-0.37847-0.0631-0.59474v-2.424"/></g><g id="text4342" fill-rule="evenodd" fill-opacity=".66667" transform="matrix(1.0007 0 0 .99928 .50004 .53534)" fill="#6229ad"><path id="path4129" d="m243.89 34.14h0.74793v2.6763c0 0.41452 0.0631 0.71489 0.18924 0.90112 0.13216 0.18023 0.34243 0.27034 0.63079 0.27034 0.22828 0.000001 0.42953-0.05707 0.60375-0.17121 0.17422-0.12015 0.36646-0.30938 0.57672-0.56771v-3.1089h0.73893v4.3795h-0.61277l-0.0631-0.68486h-0.027c-0.20426 0.2403-0.42053 0.43254-0.64881 0.57672-0.22228 0.14418-0.48661 0.21627-0.79299 0.21627-0.46859 0-0.81102-0.14418-1.0273-0.43254-0.21026-0.28836-0.31539-0.71489-0.31539-1.2796v-2.7755"/></g><g id="text4366" fill-rule="evenodd" fill-opacity=".66667" transform="matrix(1.0007 0 0 .99928 .50004 .53534)" fill="#6229ad"><path id="path4132" d="m268.62 85.873h0.61277l0.0631 0.63079h0.027c0.19224-0.21026 0.3995-0.38448 0.62178-0.52265 0.22828-0.14418 0.47459-0.21626 0.73892-0.21627 0.33642 0.000005 0.59774 0.0751 0.78398 0.22528 0.19223 0.14418 0.33341 0.34844 0.42353 0.61276 0.22828-0.25231 0.45656-0.45356 0.68485-0.60375 0.23429-0.15619 0.4866-0.23429 0.75695-0.23429 0.45055 0.000005 0.78397 0.14418 1.0002 0.43254 0.22227 0.28836 0.33341 0.7149 0.33341 1.2796v2.7755h-0.73892v-2.6763c-0.00001-0.41452-0.0661-0.71189-0.19825-0.89212-0.13217-0.18623-0.33642-0.27934-0.61276-0.27935-0.33042 0.000004-0.69688 0.22528-1.0994 0.67584v3.172h-0.73892v-2.6763c0-0.41452-0.0661-0.71189-0.19825-0.89212-0.13216-0.18623-0.33942-0.27934-0.62177-0.27935-0.33042 0.000004-0.69688 0.22528-1.0994 0.67584v3.172h-0.73892v-4.3795"/></g><g id="text4372" fill-rule="evenodd" fill-opacity=".66667" transform="matrix(1.0007 0 0 .99928 .50004 .53534)" fill="#6229ad"><path id="path4135" d="m259.75 60.056h0.73892v4.8751c0 0.44455-0.0901 0.799-0.27034 1.0633-0.18023 0.26433-0.48961 0.39649-0.92816 0.3965-0.13817-0.000002-0.26133-0.01202-0.36946-0.03604-0.10814-0.02403-0.20125-0.05107-0.27935-0.0811l0.15319-0.5587c0.0541 0.01802 0.11715 0.03304 0.18924 0.04506 0.0721 0.01802 0.14718 0.02703 0.22528 0.02703 0.21627-0.000001 0.36045-0.0751 0.43254-0.22528 0.0721-0.15019 0.10813-0.36045 0.10814-0.63079v-4.8751m0.37847-0.90113c-0.14418 0.000005-0.26734-0.04505-0.36946-0.13517-0.0961-0.09011-0.14418-0.20425-0.14418-0.34243 0-0.14418 0.0481-0.25832 0.14418-0.34243 0.10212-0.09011 0.22528-0.13516 0.36946-0.13517 0.13817 0.000006 0.25532 0.04506 0.35144 0.13517 0.10212 0.08411 0.15319 0.19825 0.15319 0.34243 0 0.13818-0.0511 0.25232-0.15319 0.34243-0.0961 0.09012-0.21327 0.13517-0.35144 0.13517"/></g><g id="text4378" fill-rule="evenodd" fill-opacity=".66667" transform="matrix(1.0007 0 0 .99928 .50004 .53534)" fill="#6229ad"><path id="path4138" d="m287.83 58.02h0.72992v4.3434h0.027l1.8653-2.3069h0.82002l-1.4688 1.7572 1.6671 2.6223h-0.81101l-1.2796-2.1086-0.82002 0.95519v1.1534h-0.72992v-6.416"/></g><g id="text4384" fill-rule="evenodd" fill-opacity=".66667" transform="matrix(1.0007 0 0 .99928 .50004 .53534)" fill="#6229ad"><path id="path4141" d="m319.07 58.02h0.73892v5.587c0 0.12015 0.021 0.20426 0.0631 0.25232s0.0901 0.07209 0.14418 0.07209c0.024 0.000001 0.0451 0.000001 0.0631 0 0.024 0.000001 0.0571-0.006 0.0991-0.01802l0.0991 0.5587c-0.0481 0.02403-0.10513 0.04205-0.17121 0.05407-0.0661 0.01202-0.15019 0.01802-0.25231 0.01802-0.28236 0-0.48361-0.0841-0.60376-0.25232-0.12015-0.16821-0.18022-0.41452-0.18022-0.73892v-5.5329"/></g><g id="text4390" fill-rule="evenodd" fill-opacity=".66667" transform="matrix(1.0007 0 0 .99928 .50004 .53534)" fill="#6229ad"><path id="path4144" d="m63.615 36.327c-0.000001-0.35444 0.05106-0.67284 0.15319-0.95519 0.10814-0.28836 0.24931-0.53166 0.42353-0.72991 0.17422-0.19824 0.37547-0.35144 0.60375-0.45957s0.46858-0.1622 0.7209-0.1622c0.25231 0.000004 0.47459 0.04506 0.66683 0.13517 0.19224 0.08411 0.38748 0.21327 0.58573 0.38748h0.01802l0.07209-0.41452h0.59474v6.2268h-0.74794v-1.5589l0.03605-0.77497c-0.17422 0.1622-0.37547 0.30338-0.60375 0.42353-0.22228 0.11414-0.45958 0.17121-0.71189 0.17121-0.55269 0-0.99424-0.19825-1.3247-0.59474-0.32441-0.39649-0.48661-0.9612-0.48661-1.6941m0.76596-0.009c-0.000002 0.52866 0.10513 0.94018 0.31539 1.2345 0.21026 0.29437 0.50763 0.44155 0.89212 0.44155 0.20425 0.000001 0.39649-0.04806 0.57672-0.14418 0.18022-0.10213 0.36045-0.25532 0.54068-0.45957v-2.2889c-0.18624-0.16821-0.36646-0.28535-0.54068-0.35144-0.16821-0.07209-0.34243-0.10813-0.52265-0.10814-0.17422 0.000004-0.33943 0.04206-0.49562 0.12616-0.15019 0.0781-0.28235 0.19224-0.3965 0.34243-0.11414 0.14418-0.20426 0.3184-0.27034 0.52265-0.06608 0.20426-0.09912 0.43254-0.09912 0.68486"/></g><g id="text4396" fill-rule="evenodd" fill-opacity=".66667" transform="matrix(1.0007 0 0 .99928 .50004 .53534)" fill="#6229ad"><path id="path4147" d="m89.891 89.856 2.3069-3.3792h-2.0546v-0.60375h2.9917v0.3965l-2.3069 3.3792h2.379v0.60375h-3.3161v-0.3965"/></g><g id="text4402" fill-rule="evenodd" fill-opacity=".66667" transform="matrix(1.0007 0 0 .99928 .50004 .53534)" fill="#6229ad"><path id="path4150" d="m108.31 63.444c0.19224 0.1562 0.38748 0.28235 0.58573 0.37847 0.20425 0.09612 0.43854 0.14418 0.70288 0.14418 0.28835 0.000001 0.50462-0.06608 0.64881-0.19825 0.14417-0.13216 0.21626-0.29437 0.21627-0.48661-0.00001-0.11414-0.03-0.21326-0.0901-0.29737-0.0601-0.0841-0.13817-0.15619-0.23429-0.21627-0.0901-0.06608-0.19524-0.12315-0.31539-0.17121l-0.36045-0.14418c-0.1562-0.05407-0.31239-0.11414-0.46859-0.18023-0.15619-0.07209-0.29737-0.15619-0.42353-0.25232-0.12015-0.10212-0.21927-0.21927-0.29737-0.35144-0.0781-0.13216-0.11714-0.29136-0.11714-0.4776 0-0.17421 0.033-0.33642 0.0991-0.48661 0.0721-0.15619 0.17121-0.28836 0.29737-0.3965 0.13216-0.11414 0.29136-0.20125 0.4776-0.26133 0.18623-0.06608 0.39649-0.09912 0.63079-0.09912 0.27634 0.000004 0.52865 0.04806 0.75694 0.14418 0.23429 0.09612 0.43554 0.21327 0.60375 0.35144l-0.35143 0.46858c-0.15019-0.11414-0.30639-0.20726-0.46859-0.27935s-0.33943-0.10813-0.53166-0.10814c-0.27635 0.000004-0.48061 0.06308-0.61277 0.18924-0.12616 0.12616-0.18924 0.27334-0.18924 0.44155 0 0.10213 0.027 0.19224 0.0811 0.27034 0.0541 0.07209 0.12615 0.13818 0.21627 0.19825 0.0901 0.05407 0.19223 0.10513 0.30638 0.15319 0.12015 0.04206 0.2433 0.08711 0.36946 0.13517 0.15619 0.06008 0.31239 0.12316 0.46859 0.18924 0.1622 0.06608 0.30638 0.15019 0.43254 0.25232 0.12615 0.09612 0.22828 0.21627 0.30638 0.36045 0.0841 0.14418 0.12615 0.3184 0.12616 0.52265-0.00001 0.18023-0.036 0.34844-0.10814 0.50463-0.0661 0.1562-0.16821 0.29437-0.30638 0.41452-0.13217 0.12015-0.30038 0.21327-0.50463 0.27935-0.19825 0.07209-0.42654 0.10814-0.68486 0.10814-0.31239 0-0.60976-0.05707-0.89211-0.17121s-0.52866-0.25832-0.73892-0.43254l0.36946-0.49562"/></g><g id="text4408" fill-rule="evenodd" fill-opacity=".66667" transform="matrix(1.0007 0 0 .99928 .50004 .53534)" fill="#6229ad"><path id="path4153" d="m77.826 63.3c0-0.4806 0.21327-0.84706 0.6398-1.0994 0.43254-0.25832 1.1174-0.43854 2.0546-0.54068-0.000003-0.13817-0.01502-0.27334-0.04506-0.40551-0.02403-0.13216-0.07209-0.24931-0.14418-0.35144-0.06609-0.10212-0.1562-0.18323-0.27034-0.2433-0.11414-0.06608-0.26133-0.09912-0.44155-0.09912-0.25832 0.000004-0.49862 0.04806-0.7209 0.14418-0.21627 0.09612-0.41152 0.20426-0.58573 0.3244l-0.29737-0.51364c0.20425-0.13216 0.45356-0.25832 0.74793-0.37847 0.29437-0.12615 0.61877-0.18923 0.97322-0.18924 0.53466 0.000004 0.92215 0.16521 1.1625 0.49562 0.2403 0.32441 0.36045 0.75995 0.36045 1.3066v2.6854h-0.61277l-0.06308-0.52265h-0.01802c-0.21027 0.17422-0.43855 0.3244-0.68486 0.45056-0.2403 0.12015-0.49562 0.18022-0.76596 0.18022-0.37247 0-0.68185-0.10814-0.92816-0.3244-0.2403-0.21627-0.36045-0.52265-0.36045-0.91915m0.72991-0.05407c-0.000001 0.25232 0.07209 0.43254 0.21627 0.54068 0.15019 0.10814 0.33342 0.1622 0.54969 0.1622 0.21026 0 0.40851-0.04806 0.59474-0.14418 0.19224-0.10213 0.39349-0.24931 0.60375-0.44155v-1.2165c-0.36646 0.04806-0.67585 0.10513-0.92816 0.17121-0.25232 0.06608-0.45657 0.14418-0.61276 0.23429-0.15019 0.09012-0.25832 0.19525-0.3244 0.31539-0.06608 0.11414-0.09912 0.2403-0.09912 0.37847"/></g><g id="text4414" fill-rule="evenodd" fill-opacity=".66667" transform="matrix(1.0007 0 0 .99928 .50004 .53534)" fill="#6229ad"><path id="path4156" d="m123.71 36.327c0-0.36045 0.0541-0.68185 0.1622-0.9642 0.11415-0.28836 0.26133-0.53166 0.44155-0.72991 0.18624-0.19824 0.3965-0.34843 0.63079-0.45056 0.23429-0.10813 0.4776-0.1622 0.72991-0.1622 0.27635 0.000004 0.52265 0.04806 0.73893 0.14418 0.22227 0.09612 0.4055 0.2343 0.54968 0.41452 0.15019 0.18023 0.26433 0.3965 0.34243 0.64881 0.0781 0.25232 0.11714 0.53467 0.11715 0.84706-0.00001 0.1622-0.009 0.29737-0.027 0.40551h-2.9557c0.03 0.4746 0.17422 0.85006 0.43254 1.1264 0.26433 0.27635 0.60676 0.41452 1.0273 0.41452 0.21026 0 0.4025-0.03004 0.57672-0.09011 0.18022-0.06608 0.35143-0.15019 0.51364-0.25232l0.26132 0.48661c-0.19224 0.12015-0.40551 0.22528-0.6398 0.31539s-0.50162 0.13517-0.802 0.13517c-0.29437 0-0.57071-0.05106-0.82903-0.15319-0.25232-0.10814-0.4746-0.25832-0.66684-0.45056-0.18623-0.19825-0.33341-0.43855-0.44155-0.7209-0.10813-0.28235-0.1622-0.60375-0.1622-0.9642m3.0638-0.33342c-0.00001-0.45056-0.0961-0.79299-0.28836-1.0273-0.18624-0.2403-0.45057-0.36045-0.79299-0.36045-0.1562 0.000004-0.30639 0.03305-0.45057 0.09912-0.13817 0.06008-0.26433 0.15019-0.37847 0.27034-0.11414 0.11415-0.21026 0.25833-0.28836 0.43254-0.0721 0.16821-0.12015 0.36346-0.14418 0.58573h2.3429"/></g><g id="text4420" fill-rule="evenodd" fill-opacity=".66667" transform="matrix(1.0007 0 0 .99928 .50004 .53534)" fill="#6229ad"><path id="path4159" d="m275.65 33.227c-0.14419 0.000005-0.26734-0.04505-0.36947-0.13517-0.0961-0.09011-0.14418-0.20425-0.14418-0.34243 0-0.14418 0.0481-0.25832 0.14418-0.34243 0.10213-0.09011 0.22528-0.13516 0.36947-0.13517 0.14417 0.000006 0.26432 0.04506 0.36045 0.13517 0.10212 0.08411 0.15319 0.19825 0.15319 0.34243 0 0.13818-0.0511 0.25232-0.15319 0.34243-0.0961 0.09012-0.21628 0.13517-0.36045 0.13517m-0.37848 0.90113h0.73893v4.3795h-0.73893v-4.3795"/></g><g id="text4426" fill-rule="evenodd" fill-opacity=".66667" transform="matrix(1.0007 0 0 .99928 .50004 .53534)" fill="#6229ad"><path id="path4162" d="m334.5 38.877v1.4778h-0.73892v-6.2268h0.61277l0.0631 0.50463h0.027c0.19825-0.16821 0.41451-0.31239 0.64881-0.43254 0.2403-0.12015 0.48961-0.18022 0.74793-0.18022 0.28235 0.000004 0.53166 0.05407 0.74794 0.1622 0.21626 0.10213 0.39649 0.25232 0.54067 0.45056 0.14418 0.19224 0.25231 0.42654 0.32441 0.70288 0.0781 0.27034 0.11714 0.57672 0.11714 0.91915 0 0.37247-0.0511 0.70588-0.15319 1.0002-0.10213 0.28836-0.2403 0.53467-0.41451 0.73892-0.17423 0.20426-0.37548 0.36045-0.60376 0.46858-0.22829 0.10213-0.46859 0.15319-0.7209 0.15319-0.20426 0-0.40851-0.04506-0.61276-0.13517-0.19825-0.09011-0.3995-0.21327-0.60376-0.36946l0.018 0.76596m0-1.3427c0.19825 0.16821 0.39049 0.28836 0.57672 0.36045 0.18623 0.06608 0.35144 0.09913 0.49562 0.09912 0.18023 0.000001 0.34543-0.03905 0.49562-0.11715 0.15619-0.08411 0.28836-0.19825 0.3965-0.34243 0.11414-0.15019 0.20125-0.33342 0.26132-0.54969 0.0661-0.21627 0.0991-0.45957 0.0991-0.72991-0.00001-0.2403-0.021-0.45957-0.0631-0.65782-0.0421-0.19824-0.11114-0.36645-0.20726-0.50463-0.0901-0.14418-0.21027-0.25532-0.36045-0.33342-0.14418-0.07809-0.3184-0.11714-0.52265-0.11715-0.18624 0.000004-0.37547 0.05107-0.56771 0.15319-0.18624 0.10213-0.38749 0.24932-0.60376 0.44155v2.2979"/></g><g id="text4432" fill-rule="evenodd" fill-opacity=".66667" transform="matrix(1.0007 0 0 .99928 .50004 .53534)" fill="#6229ad"><path id="path4165" d="m303.64 36.327c0-0.36646 0.0541-0.69086 0.1622-0.97322 0.11415-0.28836 0.26433-0.53166 0.45057-0.72991 0.18623-0.19824 0.39949-0.34843 0.6398-0.45056 0.2463-0.10212 0.50462-0.15319 0.77496-0.15319 0.27034 0.000004 0.52566 0.05107 0.76596 0.15319 0.2463 0.10213 0.46257 0.25232 0.64881 0.45056 0.18623 0.19825 0.33341 0.44156 0.44155 0.72991 0.11414 0.28236 0.17121 0.60676 0.17122 0.97322-0.00001 0.36045-0.0571 0.68486-0.17122 0.97322-0.10814 0.28235-0.25532 0.52265-0.44155 0.7209-0.18624 0.19224-0.40251 0.33942-0.64881 0.44155-0.2403 0.10213-0.49562 0.15319-0.76596 0.15319s-0.52866-0.05106-0.77496-0.15319c-0.24031-0.10213-0.45357-0.24931-0.6398-0.44155-0.18624-0.19825-0.33642-0.43855-0.45057-0.7209-0.10813-0.28836-0.1622-0.61276-0.1622-0.97322m0.76596 0c0 0.25232 0.03 0.4806 0.0901 0.68486s0.14418 0.38148 0.25232 0.53166c0.11414 0.14418 0.2493 0.25832 0.4055 0.34243 0.15619 0.0781 0.32741 0.11715 0.51364 0.11715 0.18623 0.000001 0.35745-0.03905 0.51364-0.11715 0.1562-0.0841 0.28836-0.19825 0.3965-0.34243 0.11414-0.15019 0.20125-0.32741 0.26133-0.53166 0.0601-0.20425 0.0901-0.43254 0.0901-0.68486 0-0.25231-0.03-0.4806-0.0901-0.68486-0.0601-0.21026-0.14719-0.39048-0.26133-0.54068-0.10814-0.15018-0.2403-0.26433-0.3965-0.34243-0.15619-0.0841-0.32741-0.12615-0.51364-0.12616-0.18623 0.000004-0.35745 0.04206-0.51364 0.12616-0.1562 0.0781-0.29136 0.19224-0.4055 0.34243-0.10814 0.15019-0.19225 0.33042-0.25232 0.54068-0.0601 0.20426-0.0901 0.43254-0.0901 0.68486"/></g><g id="text4450" fill-rule="evenodd" fill-opacity=".66667" transform="matrix(1.0007 0 0 .99928 .50004 .53534)" fill="#6229ad"><path id="path4168" d="m92.532 34.128h0.75695l0.64881 2.5322c0.04806 0.21026 0.09311 0.41452 0.13517 0.61277 0.04205 0.19825 0.0841 0.3995 0.12616 0.60375h0.03604c0.04806-0.20425 0.09612-0.40551 0.14418-0.60375 0.04806-0.20425 0.09912-0.40851 0.15319-0.61277l0.67584-2.5322h0.7209l0.68486 2.5322c0.05406 0.21026 0.10513 0.41452 0.15319 0.61277 0.05406 0.19825 0.10513 0.3995 0.15319 0.60375h0.03605c0.04806-0.20425 0.09311-0.40551 0.13517-0.60375 0.04205-0.19825 0.0871-0.4025 0.13517-0.61277l0.6398-2.5322h0.70288l-1.1715 4.3795h-0.90112l-0.63079-2.3519c-0.05407-0.21026-0.10514-0.41752-0.15319-0.62178-0.04206-0.20425-0.09012-0.41752-0.14418-0.6398h-0.03605c-0.04806 0.22228-0.09612 0.43855-0.14418 0.64881-0.04806 0.20426-0.10213 0.41152-0.1622 0.62178l-0.61277 2.3429h-0.86508l-1.2165-4.3795"/></g><g id="text4456" fill-rule="evenodd" fill-opacity=".66667" transform="matrix(1.0007 0 0 .99928 .50004 .53534)" fill="#6229ad"><path id="path4171" d="m213.95 39.727c0.0481 0.01201 0.10212 0.02403 0.1622 0.03605 0.0601 0.01802 0.11714 0.02703 0.17121 0.02703 0.25232-0.000002 0.45657-0.09011 0.61277-0.27034 0.1622-0.17422 0.28836-0.3965 0.37847-0.66683l0.0991-0.3244-1.7572-4.3885h0.76596l0.89211 2.424c0.0661 0.19224 0.13517 0.3965 0.20726 0.61277 0.0781 0.21026 0.15019 0.41752 0.21627 0.62178h0.036c0.0661-0.19825 0.12915-0.4055 0.18923-0.62178 0.0601-0.21627 0.12015-0.42052 0.18023-0.61277l0.78398-2.424h0.7209l-1.6491 4.7399c-0.0781 0.21627-0.16521 0.41752-0.26133 0.60375-0.0961 0.18623-0.21026 0.34543-0.34243 0.4776-0.13216 0.13817-0.28235 0.24631-0.45056 0.32441-0.16821 0.07809-0.36346 0.11714-0.58573 0.11715-0.10213-0.000002-0.19525-0.009-0.27935-0.02703-0.0841-0.01202-0.1622-0.03304-0.23429-0.06308l0.14418-0.58573"/></g></g></svg>
